<mxfile host="app.diagrams.net" modified="2024-06-03T14:54:27.443Z" agent="Mozilla/5.0 (Windows NT 10.0; Win64; x64) AppleWebKit/537.36 (KHTML, like Gecko) Chrome/125.0.0.0 Safari/537.36" version="24.4.11" etag="iejkYp8e-KJIxz4INRTe" type="github">
  <diagram name="Page-1" id="EYVxwaT7_PVNx6n_ZAnj">
    <mxGraphModel>
      <root>
        <mxCell id="0" />
        <mxCell id="1" parent="0" />
      </root>
    </mxGraphModel>
  </diagram>
</mxfile>
